<?xml version="1.0" encoding="utf-8"?>
<!-- Generator: Adobe Illustrator 16.0.0, SVG Export Plug-In . SVG Version: 6.00 Build 0)  -->
<!DOCTYPE svg PUBLIC "-//W3C//DTD SVG 1.1//EN" "http://www.w3.org/Graphics/SVG/1.1/DTD/svg11.dtd">
<svg version="1.1" id="Capa_1" xmlns="http://www.w3.org/2000/svg" xmlns:xlink="http://www.w3.org/1999/xlink" x="0px" y="0px"
	 width="595.28px" height="841.89px" viewBox="0 0 595.28 841.89" enable-background="new 0 0 595.28 841.89" xml:space="preserve">
<path fill="#642681" d="M599.774,332.319c0,4.708-3.817,8.523-8.524,8.523H4.75c-4.708,0-8.524-3.815-8.524-8.523V54.263
	c0-4.708,3.816-8.523,8.524-8.523h586.5c4.707,0,8.524,3.815,8.524,8.523V332.319z"/>
<path fill="none" d="M599.774,329.373c0,6.335-3.817,11.47-8.524,11.47H4.75c-4.708,0-8.524-5.135-8.524-11.47V-44.799
	c0-6.335,3.816-11.47,8.524-11.47h586.5c4.707,0,8.524,5.134,8.524,11.47V329.373z"/>
<g>
	<g>
		<path fill="#FFFFFF" d="M435.385,145.912v0.551c0.18-0.258,0.378-0.448,0.595-0.571s0.466-0.185,0.747-0.185
			c0.656,0,1.174,0.295,1.553,0.885s0.568,1.398,0.568,2.426c0,1.047-0.19,1.869-0.571,2.467s-0.897,0.896-1.55,0.896
			c-0.301,0-0.563-0.064-0.788-0.193s-0.409-0.32-0.554-0.574v3.07h-1.037v-8.771H435.385z M436.592,146.656
			c-0.391,0-0.696,0.212-0.917,0.636s-0.331,1.021-0.331,1.79c0,0.754,0.104,1.334,0.313,1.74s0.509,0.609,0.899,0.609
			c0.375,0,0.673-0.22,0.894-0.659s0.331-1.044,0.331-1.813c0-0.684-0.111-1.238-0.334-1.664S436.939,146.656,436.592,146.656z"/>
		<path fill="#FFFFFF" d="M443.986,147.652v3.141c0,0.254,0.019,0.422,0.056,0.504s0.103,0.123,0.196,0.123
			c0.043,0,0.088-0.004,0.135-0.012s0.102-0.02,0.164-0.035v0.814c-0.125,0.043-0.235,0.073-0.331,0.091s-0.185,0.026-0.267,0.026
			c-0.289,0-0.514-0.065-0.674-0.196s-0.244-0.315-0.252-0.554c-0.258,0.277-0.529,0.484-0.814,0.621s-0.586,0.205-0.902,0.205
			c-0.547,0-0.974-0.165-1.28-0.495s-0.46-0.79-0.46-1.38c0-0.613,0.158-1.077,0.475-1.392s0.844-0.522,1.582-0.624
			c0.098-0.012,0.23-0.029,0.398-0.053c0.613-0.074,0.92-0.363,0.92-0.867c0-0.309-0.088-0.54-0.264-0.694s-0.436-0.231-0.779-0.231
			c-0.367,0-0.64,0.095-0.817,0.284s-0.271,0.481-0.278,0.876h-1.02v-0.082c0-0.617,0.192-1.107,0.577-1.471
			s0.905-0.545,1.562-0.545c0.703,0,1.225,0.158,1.564,0.475S443.986,146.988,443.986,147.652z M442.92,149.082
			c-0.223,0.105-0.568,0.193-1.037,0.264c-0.207,0.031-0.361,0.059-0.463,0.082c-0.277,0.059-0.477,0.171-0.598,0.337
			s-0.182,0.405-0.182,0.718c0,0.309,0.069,0.548,0.208,0.718s0.337,0.255,0.595,0.255c0.426,0,0.778-0.142,1.058-0.425
			s0.419-0.649,0.419-1.099V149.082z"/>
		<path fill="#FFFFFF" d="M448.521,146.474v-0.563h1.031v6.129c0,0.98-0.178,1.686-0.533,2.115s-0.93,0.645-1.723,0.645
			c-0.633,0-1.135-0.164-1.506-0.492s-0.557-0.771-0.557-1.33v-0.07h1.031c0,0.348,0.084,0.601,0.252,0.759s0.438,0.237,0.809,0.237
			c0.398,0,0.697-0.113,0.896-0.34s0.299-0.57,0.299-1.031c0-0.004,0.002-0.018,0.006-0.041c0.004-0.078,0.006-0.152,0.006-0.223
			v-0.609c-0.141,0.246-0.315,0.428-0.524,0.545s-0.466,0.176-0.771,0.176c-0.664,0-1.196-0.302-1.597-0.905
			s-0.601-1.415-0.601-2.435c0-1.004,0.196-1.811,0.589-2.42s0.905-0.914,1.538-0.914c0.324,0,0.593,0.061,0.806,0.182
			S448.369,146.205,448.521,146.474z M447.338,146.656c-0.375,0-0.669,0.212-0.882,0.636s-0.319,1.007-0.319,1.749
			c0,0.75,0.11,1.336,0.331,1.758s0.526,0.633,0.917,0.633c0.379,0,0.67-0.202,0.873-0.606s0.305-0.985,0.305-1.743
			c0-0.785-0.105-1.386-0.316-1.802S447.732,146.656,447.338,146.656z"/>
		<path fill="#FFFFFF" d="M454.932,147.652v3.141c0,0.254,0.019,0.422,0.056,0.504s0.103,0.123,0.196,0.123
			c0.043,0,0.088-0.004,0.135-0.012s0.102-0.02,0.164-0.035v0.814c-0.125,0.043-0.235,0.073-0.331,0.091s-0.185,0.026-0.267,0.026
			c-0.289,0-0.514-0.065-0.674-0.196s-0.244-0.315-0.252-0.554c-0.258,0.277-0.529,0.484-0.814,0.621s-0.586,0.205-0.902,0.205
			c-0.547,0-0.974-0.165-1.28-0.495s-0.46-0.79-0.46-1.38c0-0.613,0.158-1.077,0.475-1.392s0.844-0.522,1.582-0.624
			c0.098-0.012,0.23-0.029,0.398-0.053c0.613-0.074,0.92-0.363,0.92-0.867c0-0.309-0.088-0.54-0.264-0.694s-0.436-0.231-0.779-0.231
			c-0.367,0-0.64,0.095-0.817,0.284s-0.271,0.481-0.278,0.876h-1.02v-0.082c0-0.617,0.192-1.107,0.577-1.471
			s0.905-0.545,1.562-0.545c0.703,0,1.225,0.158,1.564,0.475S454.932,146.988,454.932,147.652z M453.865,149.082
			c-0.223,0.105-0.568,0.193-1.037,0.264c-0.207,0.031-0.361,0.059-0.463,0.082c-0.277,0.059-0.477,0.171-0.598,0.337
			s-0.182,0.405-0.182,0.718c0,0.309,0.069,0.548,0.208,0.718s0.337,0.255,0.595,0.255c0.426,0,0.778-0.142,1.058-0.425
			s0.419-0.649,0.419-1.099V149.082z"/>
		<path fill="#FFFFFF" d="M458.799,145.794v1.113c-0.008,0-0.02-0.002-0.035-0.006c-0.102-0.012-0.178-0.018-0.229-0.018
			c-0.406,0-0.714,0.154-0.923,0.463s-0.313,0.758-0.313,1.348v3.492h-1.061v-6.275h1.037l-0.012,0.768
			c0.117-0.301,0.275-0.526,0.475-0.677s0.436-0.226,0.709-0.226c0.066,0,0.127,0.001,0.182,0.003S458.74,145.787,458.799,145.794z"
			/>
	</g>
</g>
<g>
	<g>
		<path fill="#FFFFFF" d="M344.141,144.16h1.055v1.752h0.826v0.838h-0.826v3.855v0.023c0,0.254,0.02,0.431,0.059,0.53
			s0.104,0.149,0.193,0.149c0.043,0,0.107-0.004,0.193-0.012s0.213-0.023,0.381-0.047v0.902c-0.145,0.035-0.281,0.062-0.41,0.079
			s-0.244,0.026-0.346,0.026c-0.414,0-0.705-0.094-0.873-0.281s-0.252-0.525-0.252-1.014v-4.213h-0.674v-0.838h0.674V144.16z"/>
		<path fill="#FFFFFF" d="M349.338,145.794v1.113c-0.008,0-0.02-0.002-0.035-0.006c-0.102-0.012-0.178-0.018-0.229-0.018
			c-0.406,0-0.714,0.154-0.923,0.463s-0.313,0.758-0.313,1.348v3.492h-1.061v-6.275h1.037l-0.012,0.768
			c0.117-0.301,0.275-0.526,0.475-0.677s0.436-0.226,0.709-0.226c0.066,0,0.127,0.001,0.182,0.003S349.279,145.787,349.338,145.794z
			"/>
		<path fill="#FFFFFF" d="M354.23,147.652v3.141c0,0.254,0.019,0.422,0.056,0.504s0.103,0.123,0.196,0.123
			c0.043,0,0.088-0.004,0.135-0.012s0.102-0.02,0.164-0.035v0.814c-0.125,0.043-0.235,0.073-0.331,0.091s-0.185,0.026-0.267,0.026
			c-0.289,0-0.514-0.065-0.674-0.196s-0.244-0.315-0.252-0.554c-0.258,0.277-0.529,0.484-0.814,0.621s-0.586,0.205-0.902,0.205
			c-0.547,0-0.974-0.165-1.28-0.495s-0.46-0.79-0.46-1.38c0-0.613,0.158-1.077,0.475-1.392s0.844-0.522,1.582-0.624
			c0.098-0.012,0.23-0.029,0.398-0.053c0.613-0.074,0.92-0.363,0.92-0.867c0-0.309-0.088-0.54-0.264-0.694s-0.436-0.231-0.779-0.231
			c-0.367,0-0.64,0.095-0.817,0.284s-0.271,0.481-0.278,0.876h-1.02v-0.082c0-0.617,0.192-1.107,0.577-1.471
			s0.905-0.545,1.562-0.545c0.703,0,1.225,0.158,1.564,0.475S354.23,146.988,354.23,147.652z M353.164,149.082
			c-0.223,0.105-0.568,0.193-1.037,0.264c-0.207,0.031-0.361,0.059-0.463,0.082c-0.277,0.059-0.477,0.171-0.598,0.337
			s-0.182,0.405-0.182,0.718c0,0.309,0.069,0.548,0.208,0.718s0.337,0.255,0.595,0.255c0.426,0,0.778-0.142,1.058-0.425
			s0.419-0.649,0.419-1.099V149.082z"/>
		<path fill="#FFFFFF" d="M359.797,148.419v3.768h-1.066v-4.225c0-0.41-0.072-0.725-0.217-0.943s-0.352-0.328-0.621-0.328
			c-0.406,0-0.724,0.169-0.952,0.507s-0.343,0.81-0.343,1.415v3.574h-1.061v-6.275h1.025v0.621c0.188-0.266,0.4-0.462,0.639-0.589
			s0.516-0.19,0.832-0.19c0.348,0,0.657,0.075,0.929,0.226s0.476,0.356,0.612,0.618c0.078,0.152,0.135,0.331,0.17,0.536
			s0.053,0.519,0.053,0.94V148.419z"/>
		<path fill="#FFFFFF" d="M364.842,147.664h-1.043c-0.016-0.332-0.11-0.589-0.284-0.771s-0.411-0.272-0.712-0.272
			s-0.532,0.072-0.694,0.217s-0.243,0.352-0.243,0.621c0,0.219,0.052,0.389,0.155,0.51s0.292,0.223,0.565,0.305l0.803,0.24
			c0.621,0.188,1.04,0.41,1.257,0.668s0.325,0.615,0.325,1.072c0,0.676-0.188,1.197-0.565,1.564s-0.911,0.551-1.603,0.551
			c-0.672,0-1.19-0.193-1.556-0.58s-0.548-0.934-0.548-1.641h1.02c0.031,0.43,0.143,0.753,0.334,0.97s0.465,0.325,0.82,0.325
			c0.32,0,0.574-0.09,0.762-0.27s0.281-0.422,0.281-0.727c0-0.227-0.053-0.408-0.158-0.545s-0.277-0.242-0.516-0.316l-0.932-0.293
			c-0.551-0.168-0.935-0.38-1.151-0.636s-0.325-0.61-0.325-1.063c0-0.594,0.173-1.055,0.519-1.383s0.829-0.492,1.45-0.492
			c0.613,0,1.106,0.175,1.479,0.524s0.56,0.815,0.56,1.397V147.664z"/>
		<path fill="#FFFFFF" d="M368.105,143.521v0.973l-0.264-0.07c-0.02-0.008-0.047-0.014-0.082-0.018s-0.072-0.006-0.111-0.006
			c-0.164,0-0.278,0.069-0.343,0.208s-0.097,0.397-0.097,0.776v0.527h0.896v0.838h-0.896v5.438h-1.072v-5.438h-0.814v-0.838h0.814
			v-0.926c0-0.52,0.103-0.909,0.308-1.169s0.515-0.39,0.929-0.39c0.098,0,0.208,0.008,0.331,0.023S367.961,143.49,368.105,143.521z"
			/>
		<path fill="#FFFFFF" d="M373.18,149.345h-3.621c0.008,0.66,0.13,1.173,0.366,1.538s0.562,0.548,0.976,0.548
			c0.313,0,0.572-0.112,0.779-0.337s0.34-0.54,0.398-0.946h1.043c-0.094,0.703-0.346,1.251-0.756,1.644s-0.934,0.589-1.57,0.589
			c-0.723,0-1.291-0.297-1.705-0.891s-0.621-1.414-0.621-2.461c0-1.027,0.212-1.838,0.636-2.432s0.999-0.891,1.726-0.891
			c0.754,0,1.337,0.273,1.749,0.82s0.618,1.326,0.618,2.338c0,0.129-0.001,0.226-0.003,0.29S373.188,149.283,373.18,149.345z
			 M372.102,148.478c-0.008-0.598-0.12-1.053-0.337-1.365s-0.528-0.469-0.935-0.469c-0.371,0-0.667,0.159-0.888,0.478
			s-0.349,0.771-0.384,1.356H372.102z"/>
		<path fill="#FFFFFF" d="M376.701,145.794v1.113c-0.008,0-0.02-0.002-0.035-0.006c-0.102-0.012-0.178-0.018-0.229-0.018
			c-0.406,0-0.714,0.154-0.923,0.463s-0.313,0.758-0.313,1.348v3.492h-1.061v-6.275h1.037l-0.012,0.768
			c0.117-0.301,0.275-0.526,0.475-0.677s0.436-0.226,0.709-0.226c0.066,0,0.127,0.001,0.182,0.003S376.643,145.787,376.701,145.794z
			"/>
		<path fill="#FFFFFF" d="M377.381,143.556h1.055v1.201h-1.055V143.556z M377.381,145.912h1.055v6.275h-1.055V145.912z"/>
		<path fill="#FFFFFF" d="M382.186,145.794v1.113c-0.008,0-0.02-0.002-0.035-0.006c-0.102-0.012-0.178-0.018-0.229-0.018
			c-0.406,0-0.714,0.154-0.923,0.463s-0.313,0.758-0.313,1.348v3.492h-1.061v-6.275h1.037l-0.012,0.768
			c0.117-0.301,0.275-0.526,0.475-0.677s0.436-0.226,0.709-0.226c0.066,0,0.127,0.001,0.182,0.003S382.127,145.787,382.186,145.794z
			"/>
	</g>
</g>
<g>
	<g>
		<path fill="#FFFFFF" d="M498.941,146.656c0.141-0.293,0.339-0.517,0.595-0.671s0.558-0.231,0.905-0.231
			c0.555,0,0.975,0.17,1.26,0.51s0.428,0.842,0.428,1.506v0.65v3.768h-1.043v-3.861c0-0.625-0.059-1.056-0.176-1.292
			s-0.314-0.354-0.592-0.354c-0.352,0-0.627,0.159-0.826,0.478s-0.299,0.759-0.299,1.321v3.709h-1.061v-4.225
			c0-0.418-0.066-0.736-0.199-0.955s-0.326-0.328-0.58-0.328c-0.34,0-0.61,0.162-0.812,0.486s-0.302,0.762-0.302,1.313v3.709h-1.055
			v-6.275h1.008v0.527c0.188-0.23,0.396-0.402,0.624-0.516s0.483-0.17,0.765-0.17c0.34,0,0.633,0.082,0.879,0.246
			S498.867,146.382,498.941,146.656z"/>
		<path fill="#FFFFFF" d="M505.48,145.707c0.754,0,1.336,0.289,1.746,0.867s0.615,1.4,0.615,2.467s-0.205,1.89-0.615,2.47
			s-0.992,0.87-1.746,0.87c-0.758,0-1.344-0.29-1.758-0.87s-0.621-1.403-0.621-2.47c0-1.055,0.209-1.874,0.627-2.458
			S504.73,145.707,505.48,145.707z M505.492,146.644c-0.414,0-0.735,0.21-0.964,0.63s-0.343,1.009-0.343,1.767
			c0,0.762,0.114,1.353,0.343,1.772s0.55,0.63,0.964,0.63c0.402,0,0.717-0.21,0.943-0.63s0.34-1.011,0.34-1.772
			c0-0.754-0.113-1.342-0.34-1.764S505.895,146.644,505.492,146.644z"/>
		<path fill="#FFFFFF" d="M508.229,145.912h1.119l1.342,4.992l1.307-4.992h1.107l-1.875,6.275h-1.102L508.229,145.912z"/>
		<path fill="#FFFFFF" d="M513.701,143.556h1.055v1.201h-1.055V143.556z M513.701,145.912h1.055v6.275h-1.055V145.912z"/>
		<path fill="#FFFFFF" d="M519.73,146.656c0.141-0.293,0.339-0.517,0.595-0.671s0.558-0.231,0.905-0.231
			c0.555,0,0.975,0.17,1.26,0.51s0.428,0.842,0.428,1.506v0.65v3.768h-1.043v-3.861c0-0.625-0.059-1.056-0.176-1.292
			s-0.314-0.354-0.592-0.354c-0.352,0-0.627,0.159-0.826,0.478s-0.299,0.759-0.299,1.321v3.709h-1.061v-4.225
			c0-0.418-0.066-0.736-0.199-0.955s-0.326-0.328-0.58-0.328c-0.34,0-0.61,0.162-0.812,0.486s-0.302,0.762-0.302,1.313v3.709h-1.055
			v-6.275h1.008v0.527c0.188-0.23,0.396-0.402,0.624-0.516s0.483-0.17,0.765-0.17c0.34,0,0.633,0.082,0.879,0.246
			S519.656,146.382,519.73,146.656z"/>
		<path fill="#FFFFFF" d="M524.096,143.556h1.055v1.201h-1.055V143.556z M524.096,145.912h1.055v6.275h-1.055V145.912z"/>
		<path fill="#FFFFFF" d="M530.852,149.345h-3.621c0.008,0.66,0.13,1.173,0.366,1.538s0.562,0.548,0.976,0.548
			c0.313,0,0.572-0.112,0.779-0.337s0.34-0.54,0.398-0.946h1.043c-0.094,0.703-0.346,1.251-0.756,1.644s-0.934,0.589-1.57,0.589
			c-0.723,0-1.291-0.297-1.705-0.891s-0.621-1.414-0.621-2.461c0-1.027,0.212-1.838,0.636-2.432s0.999-0.891,1.726-0.891
			c0.754,0,1.337,0.273,1.749,0.82s0.618,1.326,0.618,2.338c0,0.129-0.001,0.226-0.003,0.29S530.859,149.283,530.852,149.345z
			 M529.773,148.478c-0.008-0.598-0.12-1.053-0.337-1.365s-0.528-0.469-0.935-0.469c-0.371,0-0.667,0.159-0.888,0.478
			s-0.349,0.771-0.384,1.356H529.773z"/>
		<path fill="#FFFFFF" d="M536.072,148.419v3.768h-1.066v-4.225c0-0.41-0.072-0.725-0.217-0.943s-0.352-0.328-0.621-0.328
			c-0.406,0-0.724,0.169-0.952,0.507s-0.343,0.81-0.343,1.415v3.574h-1.061v-6.275h1.025v0.621c0.188-0.266,0.4-0.462,0.639-0.589
			s0.516-0.19,0.832-0.19c0.348,0,0.657,0.075,0.929,0.226s0.476,0.356,0.612,0.618c0.078,0.152,0.135,0.331,0.17,0.536
			s0.053,0.519,0.053,0.94V148.419z"/>
		<path fill="#FFFFFF" d="M537.385,144.16h1.055v1.752h0.826v0.838h-0.826v3.855v0.023c0,0.254,0.02,0.431,0.059,0.53
			s0.104,0.149,0.193,0.149c0.043,0,0.107-0.004,0.193-0.012s0.213-0.023,0.381-0.047v0.902c-0.145,0.035-0.281,0.062-0.41,0.079
			s-0.244,0.026-0.346,0.026c-0.414,0-0.705-0.094-0.873-0.281s-0.252-0.525-0.252-1.014v-4.213h-0.674v-0.838h0.674V144.16z"/>
		<path fill="#FFFFFF" d="M542.148,145.707c0.754,0,1.336,0.289,1.746,0.867s0.615,1.4,0.615,2.467s-0.205,1.89-0.615,2.47
			s-0.992,0.87-1.746,0.87c-0.758,0-1.344-0.29-1.758-0.87s-0.621-1.403-0.621-2.47c0-1.055,0.209-1.874,0.627-2.458
			S541.398,145.707,542.148,145.707z M542.16,146.644c-0.414,0-0.735,0.21-0.964,0.63s-0.343,1.009-0.343,1.767
			c0,0.762,0.114,1.353,0.343,1.772s0.55,0.63,0.964,0.63c0.402,0,0.717-0.21,0.943-0.63s0.34-1.011,0.34-1.772
			c0-0.754-0.113-1.342-0.34-1.764S542.563,146.644,542.16,146.644z"/>
		<path fill="#FFFFFF" d="M549.326,147.664h-1.043c-0.016-0.332-0.11-0.589-0.284-0.771s-0.411-0.272-0.712-0.272
			s-0.532,0.072-0.694,0.217s-0.243,0.352-0.243,0.621c0,0.219,0.052,0.389,0.155,0.51s0.292,0.223,0.565,0.305l0.803,0.24
			c0.621,0.188,1.04,0.41,1.257,0.668s0.325,0.615,0.325,1.072c0,0.676-0.188,1.197-0.565,1.564s-0.911,0.551-1.603,0.551
			c-0.672,0-1.19-0.193-1.556-0.58s-0.548-0.934-0.548-1.641h1.02c0.031,0.43,0.143,0.753,0.334,0.97s0.465,0.325,0.82,0.325
			c0.32,0,0.574-0.09,0.762-0.27s0.281-0.422,0.281-0.727c0-0.227-0.053-0.408-0.158-0.545s-0.277-0.242-0.516-0.316l-0.932-0.293
			c-0.551-0.168-0.935-0.38-1.151-0.636s-0.325-0.61-0.325-1.063c0-0.594,0.173-1.055,0.519-1.383s0.829-0.492,1.45-0.492
			c0.613,0,1.106,0.175,1.479,0.524s0.56,0.815,0.56,1.397V147.664z"/>
	</g>
</g>
<g>
	<g>
		<path fill="#FFFFFF" d="M534.164,126.576h-8.729c-0.981,0-1.771-0.793-1.771-1.772s0.789-1.773,1.771-1.773h8.729
			c0.604,0,1.447-0.923,1.943-1.716v-18.72l-5.265-4.985h-13.922c-1.538,0-2.047,0.341-2.155,0.442v10.195
			c0,0.979-0.796,1.773-1.773,1.773s-1.772-0.794-1.772-1.773V98.043c-0.03-0.646,0.188-1.568,0.895-2.35
			c0.976-1.081,2.593-1.626,4.807-1.626h14.63c0.452,0,0.887,0.174,1.216,0.484l6.329,5.995c0.355,0.333,0.556,0.8,0.556,1.286
			v19.948c0,0.28-0.065,0.555-0.191,0.801C539.252,122.993,537.344,126.576,534.164,126.576z"/>
	</g>
	<g>
		<path fill="#FFFFFF" d="M529.146,104.563h-10.142c-0.98,0-1.772-0.794-1.772-1.772c0-0.979,0.792-1.773,1.772-1.773h10.142
			c0.98,0,1.772,0.794,1.772,1.773C530.919,103.768,530.127,104.563,529.146,104.563z"/>
	</g>
	<g>
		<path fill="#FFFFFF" d="M533.298,110.453h-14.293c-0.98,0-1.772-0.79-1.772-1.771c0-0.978,0.792-1.772,1.772-1.772h14.293
			c0.975,0,1.771,0.794,1.771,1.772C535.068,109.664,534.272,110.453,533.298,110.453z"/>
	</g>
	<g>
		<path fill="#FFFFFF" d="M529.146,117.441h-5.07c-0.981,0-1.773-0.793-1.773-1.771c0-0.979,0.792-1.773,1.773-1.773h5.07
			c0.98,0,1.772,0.794,1.772,1.773C530.919,116.648,530.127,117.441,529.146,117.441z"/>
	</g>
</g>
<circle fill="#FFFFFF" cx="512.65" cy="121.346" r="10.26"/>
<g>
	<path fill="#642681" d="M511.618,127.053v-1.342c-0.937-0.028-1.844-0.293-2.378-0.589l0.42-1.635
		c0.59,0.32,1.412,0.615,2.322,0.615c0.799,0,1.362-0.323,1.362-0.871c0-0.53-0.464-0.865-1.5-1.217
		c-1.497-0.505-2.52-1.202-2.52-2.56c0-1.245,0.869-2.212,2.367-2.49v-1.33h1.371v1.23c0.939,0.03,1.564,0.238,2.04,0.459
		l-0.417,1.584c-0.353-0.17-1.01-0.487-2.017-0.487c-0.907,0-1.201,0.401-1.201,0.794c0,0.449,0.487,0.757,1.68,1.193
		c1.679,0.583,2.337,1.356,2.337,2.629c0,1.247-0.869,2.297-2.493,2.577v1.438H511.618z"/>
</g>
<g>
	<path fill="#FFFFFF" d="M361.844,99.178c0.029,0.056,0.05,0.115,0.059,0.185l0.209,1.304c2.565-1.58,5.849-1.867,8.746-0.493
		c3.08,1.389,4.078,3.683,4.324,5.565l-4.612,0.149c-0.264,0.009-0.502,0.175-0.59,0.421c-0.097,0.248-0.035,0.529,0.158,0.709
		l5.335,5.069c0.047,0.042,0.103,0.079,0.155,0.105c0.224,0.116,0.502,0.094,0.708-0.069l6.812-5.461
		c0.217-0.178,0.303-0.477,0.202-0.741c-0.097-0.268-0.354-0.435-0.634-0.427l-4.9,0.157c-0.314-2.709-1.715-5.794-5.49-7.668
		c-0.026-0.018-0.041-0.041-0.064-0.056c-0.088-0.044-0.176-0.077-0.265-0.119c-0.035-0.016-0.064-0.034-0.097-0.048
		c-0.012-0.004-0.023-0.003-0.032-0.006c-3.939-1.823-8.414-1.28-11.755,1.081l1.124-0.025
		C361.504,98.802,361.735,98.952,361.844,99.178z"/>
</g>
<g>
	<path fill="#FFFFFF" d="M360.975,129.772c-0.006-0.062-0.006-0.125,0.009-0.191l0.218-1.305c-2.938,0.681-6.14-0.091-8.453-2.316
		c-2.472-2.296-2.688-4.792-2.325-6.651l4.419,1.327c0.256,0.075,0.531-0.007,0.696-0.213c0.17-0.203,0.199-0.487,0.076-0.722
		l-3.444-6.506c-0.032-0.054-0.07-0.105-0.114-0.148c-0.176-0.176-0.446-0.245-0.693-0.156l-8.193,3.005
		c-0.265,0.1-0.438,0.355-0.432,0.637c0.009,0.283,0.202,0.525,0.47,0.608l4.694,1.412c-0.569,2.67-0.221,6.038,2.763,9.019
		c0.021,0.023,0.021,0.051,0.044,0.074c0.064,0.067,0.141,0.126,0.208,0.195c0.03,0.023,0.054,0.051,0.083,0.077
		c0.006,0.012,0.018,0.009,0.026,0.018c3.153,2.98,7.565,3.889,11.488,2.717l-1.078-0.335
		C361.181,130.239,361.011,130.021,360.975,129.772z"/>
</g>
<g>
	<path fill="#FFFFFF" d="M352.849,112.265v-1.976c-1.377-0.04-2.716-0.433-3.497-0.863l0.619-2.411
		c0.863,0.474,2.076,0.906,3.415,0.906c1.171,0,1.993-0.476,1.993-1.277c0-0.78-0.675-1.274-2.199-1.791
		c-2.201-0.743-3.705-1.768-3.705-3.764c0-1.831,1.274-3.25,3.479-3.664V95.47h2.014v1.812c1.38,0.041,2.308,0.346,3.004,0.681
		l-0.613,2.324c-0.515-0.248-1.483-0.718-2.966-0.718c-1.336,0-1.768,0.593-1.768,1.171c0,0.658,0.72,1.113,2.47,1.747
		c2.469,0.864,3.438,1.999,3.438,3.872c0,1.832-1.277,3.376-3.664,3.786v2.12H352.849z"/>
</g>
<circle fill="#FFFFFF" cx="371.751" cy="121.998" r="8.082"/>
<g>
	<path fill="#642681" d="M370.708,125.879c-0.247,0-0.484-0.08-0.685-0.228l-3.376-2.534c-0.505-0.375-0.605-1.088-0.229-1.591
		c0.379-0.5,1.093-0.605,1.592-0.228l2.451,1.838l3.262-4.543c0.367-0.512,1.078-0.63,1.586-0.264
		c0.511,0.367,0.628,1.076,0.264,1.585l-3.942,5.49c-0.18,0.25-0.449,0.414-0.752,0.459
		C370.822,125.875,370.764,125.879,370.708,125.879z"/>
</g>
<path fill="none" stroke="#FFFFFF" stroke-width="0.7365" stroke-miterlimit="10" d="M394.4,120.215
	c0,9.761-3.496,17.674-13.256,17.674h-34.288c-9.763,0-13.256-7.914-13.256-17.674v-14.522c0-9.762,3.493-17.676,13.256-17.676
	h34.288c9.76,0,13.256,7.914,13.256,17.676V120.215z"/>
<g>
	<g>
		<path fill="#FFFFFF" d="M428.149,130.621c-1.409,0-2.956-0.094-4.662-0.303c-0.637-0.078-1.107-0.621-1.096-1.262l0.432-20.913
			c0.006-0.358,0.171-0.702,0.449-0.932l6.883-5.709c0.666-0.891,2.519-1.239,5.833-1.117c0.69,0.023,1.228,0.605,1.201,1.291
			s-0.604,1.223-1.292,1.196c-2.637-0.097-3.573,0.16-3.828,0.255c-0.047,0.053-0.098,0.103-0.15,0.15l-6.617,5.487l-0.396,19.206
			c9.724,0.923,12.962-2.311,14.548-3.897c2.151-2.152,9.219-8.47,9.519-8.742c0.018-0.015,0.032-0.028,0.053-0.045
			c1.67-1.334,0.975-2.422,0.945-2.466c-0.023-0.037-0.047-0.077-0.067-0.116c-0.573-1.101-2.079-0.762-2.364-0.687l-13.188,5.396
			c-0.638,0.26-1.362-0.046-1.624-0.68c-0.261-0.637,0.044-1.365,0.682-1.624l13.253-5.424c0.032-0.013,0.064-0.025,0.1-0.034
			c1.289-0.404,4.043-0.529,5.319,1.848c0.676,1.075,1.189,3.559-1.474,5.71c-0.467,0.417-7.352,6.581-9.392,8.623
			C438.904,128.141,435.369,130.621,428.149,130.621z M432.345,102.566c-0.009,0.029-0.015,0.059-0.023,0.088
			C432.33,102.627,432.336,102.595,432.345,102.566z"/>
	</g>
	<g>
		<path fill="#FFFFFF" d="M466.274,105.624h-29.433c-0.687,0-1.242-0.553-1.242-1.24c0-0.688,0.556-1.245,1.242-1.245h29.433
			c0.688,0,1.245,0.557,1.245,1.245C467.52,105.07,466.962,105.624,466.274,105.624z"/>
	</g>
	<g>
		<path fill="#FFFFFF" d="M464.881,96.855h-26.72c-1.433,0-2.602,1.166-2.602,2.601v17.474l2.49-0.979V99.457
			c0-0.06,0.05-0.113,0.111-0.113h26.72c0.062,0,0.115,0.053,0.115,0.113v19.207c0,0.063-0.054,0.112-0.115,0.112h-19.759
			l-2.783,2.49h22.542c1.433,0,2.602-1.167,2.602-2.602V99.457C467.482,98.021,466.313,96.855,464.881,96.855z"/>
	</g>
	<path fill="none" stroke="#FFFFFF" stroke-width="0.7365" stroke-miterlimit="10" d="M475.612,120.215
		c0,9.761-3.494,17.674-13.256,17.674h-34.289c-9.762,0-13.256-7.914-13.256-17.674v-14.522c0-9.762,3.494-17.676,13.256-17.676
		h34.289c9.762,0,13.256,7.914,13.256,17.676V120.215z"/>
</g>
<path fill="none" stroke="#FFFFFF" stroke-width="0.7365" stroke-miterlimit="10" d="M552.907,118.75
	c0,9.762-3.494,17.676-13.256,17.676h-34.289c-9.763,0-13.256-7.915-13.256-17.676v-14.523c0-9.762,3.493-17.677,13.256-17.677
	h34.289c9.762,0,13.256,7.915,13.256,17.677V118.75z"/>
</svg>
