<?xml version="1.0" encoding="utf-8"?>
<!-- Generator: Adobe Illustrator 16.0.0, SVG Export Plug-In . SVG Version: 6.00 Build 0)  -->
<!DOCTYPE svg PUBLIC "-//W3C//DTD SVG 1.1//EN" "http://www.w3.org/Graphics/SVG/1.1/DTD/svg11.dtd">
<svg version="1.1" id="Capa_1" xmlns="http://www.w3.org/2000/svg" xmlns:xlink="http://www.w3.org/1999/xlink" x="0px" y="0px"
	 width="595.28px" height="841.89px" viewBox="0 0 595.28 841.89" enable-background="new 0 0 595.28 841.89" xml:space="preserve">
<g>
	<g>
		<path fill="#263778" d="M264.422,392.641c-5.15,0-9.33,12.971-9.33,28.969c0,16,4.18,28.97,9.33,28.97
			c5.155,0,9.334-12.971,9.334-28.97C273.756,405.612,269.577,392.641,264.422,392.641z M267.418,437.766
			c-2.729,0-4.944-7.23-4.944-16.147c0-8.918,2.215-16.148,4.944-16.148c2.732,0,4.946,7.23,4.946,16.148
			C272.365,430.535,270.15,437.766,267.418,437.766z"/>
	</g>
	<g>
		<path fill="#263778" d="M231.9,421.61c-0.19-13.193,6.187-24.455,11.437-28.62c-5.119,0.719-20.367,11.05-20.367,28.319
			c0,16.923,15.246,27.864,20.563,28.622C239.339,446.545,232.098,435.432,231.9,421.61z"/>
	</g>
	<g>
		<path fill="#263778" d="M255.733,444.611c-4.306,0-7.8-10.353-7.8-23.124c0-12.77,3.495-23.123,7.8-23.123
			c0.976,0,1.91,0.536,2.772,1.505c0.204-0.569,0.417-1.112,0.639-1.624c-1.878-5.234-4.346-8.218-7.077-8.613
			c-5.709-0.824-10.605,14.416-10.605,31.977c0,17.564,4.719,31.8,10.536,31.8c2.757,0,5.269-3.201,7.146-8.436
			c-0.243-0.563-0.478-1.161-0.703-1.795C257.598,444.104,256.687,444.611,255.733,444.611z"/>
	</g>
	<g>
		<path fill="#263778" d="M289.12,429.539c-0.276,0-0.468-0.039-0.58-0.125c-0.107-0.08-0.187-0.258-0.245-0.534l-5.502-29.479
			c-0.054-0.249-0.041-0.419,0.044-0.517c0.08-0.094,0.232-0.144,0.45-0.144h4.064c0.468,0,0.739,0.219,0.824,0.66l2.664,16.753
			c0.027,0.133,0.108,0.205,0.233,0.205c0.12,0,0.195-0.072,0.223-0.205l3.493-16.753c0.054-0.277,0.143-0.455,0.263-0.535
			c0.125-0.084,0.307-0.125,0.556-0.125h1.97c0.277,0,0.463,0.041,0.575,0.125c0.112,0.081,0.205,0.258,0.291,0.535l3.488,16.753
			c0.027,0.133,0.093,0.205,0.205,0.205c0.111,0,0.178-0.072,0.205-0.205l2.713-16.753c0.08-0.441,0.338-0.66,0.775-0.66h4.108
			c0.409,0,0.575,0.219,0.49,0.66l-5.499,29.479c-0.053,0.169-0.111,0.294-0.164,0.392c-0.059,0.1-0.139,0.166-0.245,0.205
			c-0.112,0.045-0.263,0.063-0.454,0.063h-2.67c-0.467,0-0.752-0.217-0.859-0.659l-3.699-17.818
			c-0.026-0.139-0.102-0.209-0.222-0.209c-0.125,0-0.201,0.071-0.232,0.209l-3.734,17.818c-0.107,0.442-0.397,0.659-0.865,0.659
			H289.12z"/>
		<path fill="#263778" d="M314.696,429.539c-0.272,0-0.411-0.133-0.411-0.41v-29.977c0-0.273,0.139-0.411,0.411-0.411h6.245
			c2.162,0,3.85,0.696,5.07,2.094c1.217,1.399,1.827,3.369,1.827,5.913v14.784c0,1.698-0.285,3.15-0.842,4.354
			c-0.562,1.203-1.354,2.111-2.384,2.727c-1.024,0.619-2.25,0.926-3.672,0.926H314.696z M316.709,427.73h4.188
			c1.559,0,2.78-0.539,3.654-1.622c0.878-1.078,1.318-2.548,1.318-4.411v-15.114c0-1.23-0.196-2.299-0.579-3.2
			c-0.383-0.909-0.949-1.604-1.702-2.094c-0.753-0.494-1.648-0.739-2.691-0.739h-4.188c-0.271,0-0.41,0.12-0.41,0.365v26.449
			C316.299,427.61,316.438,427.73,316.709,427.73z"/>
		<path fill="#263778" d="M339.785,429.869c-2.107,0-3.77-0.673-4.986-2.014c-1.221-1.342-1.826-3.199-1.826-5.583v-16.264
			c0-2.383,0.605-4.241,1.826-5.583c1.217-1.341,2.879-2.014,4.986-2.014s3.752,0.641,4.928,1.933
			c1.182,1.283,1.77,3.039,1.77,5.253c0,0.271-0.125,0.41-0.374,0.41h-1.19c-0.244,0-0.369-0.121-0.369-0.37
			c-0.027-1.667-0.447-2.977-1.253-3.92c-0.807-0.945-1.965-1.417-3.471-1.417c-1.507,0-2.673,0.481-3.511,1.439
			c-0.834,0.958-1.247,2.26-1.247,3.899v17.003c0,1.639,0.413,2.939,1.247,3.898c0.838,0.957,2.004,1.439,3.511,1.439
			c1.479,0,2.638-0.482,3.471-1.439c0.834-0.959,1.253-2.26,1.253-3.898v-7.637c0-0.276-0.135-0.41-0.41-0.41h-3.818
			c-0.272,0-0.41-0.143-0.41-0.415v-0.86c0-0.276,0.138-0.41,0.41-0.41h5.752c0.267,0,0.41,0.134,0.41,0.41v9.197
			c0,2.272-0.588,4.063-1.77,5.382C343.537,429.209,341.893,429.869,339.785,429.869z"/>
		<path fill="#263778" d="M352.27,429.539c-0.271,0-0.409-0.133-0.409-0.41v-29.977c0-0.273,0.138-0.411,0.409-0.411h1.19
			c0.276,0,0.409,0.138,0.409,0.411v29.977c0,0.277-0.133,0.41-0.409,0.41H352.27z"/>
		<path fill="#263778" d="M364.011,429.539c-0.272,0-0.409-0.133-0.409-0.41v-28.213c0-0.246-0.134-0.365-0.41-0.365h-4.52
			c-0.271,0-0.409-0.152-0.409-0.455v-0.944c0-0.273,0.138-0.411,0.409-0.411h11.826c0.303,0,0.455,0.138,0.455,0.411v0.944
			c0,0.303-0.152,0.455-0.455,0.455h-4.514c-0.271,0-0.41,0.12-0.41,0.365v28.213c0,0.277-0.137,0.41-0.414,0.41H364.011z"/>
	</g>
	<g>
		<path fill="#E23775" d="M291.641,444.17c-0.396,0-0.752-0.038-1.07-0.115c-0.317-0.078-0.596-0.189-0.838-0.334
			c-0.242-0.146-0.447-0.322-0.617-0.532s-0.306-0.446-0.408-0.71c-0.083-0.211-0.143-0.445-0.178-0.702
			c-0.035-0.257-0.054-0.544-0.054-0.86v-4.46h1.387v4.336c0,0.536,0.063,0.954,0.192,1.256c0.144,0.337,0.353,0.579,0.628,0.728
			c0.275,0.148,0.599,0.224,0.973,0.224c0.373,0,0.698-0.075,0.974-0.224c0.275-0.148,0.484-0.391,0.627-0.728
			c0.128-0.302,0.193-0.72,0.193-1.256v-4.336h1.386v4.46c0,0.316-0.018,0.604-0.054,0.86c-0.036,0.257-0.096,0.491-0.178,0.702
			c-0.102,0.264-0.239,0.5-0.411,0.71c-0.171,0.21-0.381,0.387-0.627,0.532c-0.248,0.145-0.532,0.256-0.852,0.334
			C292.396,444.132,292.037,444.17,291.641,444.17z"/>
		<path fill="#263778" d="M299.973,444.029h-0.922v-6.74h-2.53v-0.833h5.983v0.833h-2.531V444.029z"/>
		<path fill="#263778" d="M305.193,440.895v3.135h-0.922v-7.573h1.961c0.332,0,0.613,0.013,0.846,0.037
			c0.23,0.024,0.443,0.063,0.635,0.116c0.528,0.143,0.932,0.387,1.211,0.732c0.278,0.346,0.418,0.776,0.418,1.293
			c0,0.307-0.049,0.58-0.147,0.821c-0.097,0.241-0.235,0.451-0.413,0.628c-0.177,0.178-0.39,0.322-0.637,0.437
			c-0.247,0.112-0.521,0.196-0.822,0.249v0.022l2.24,3.237h-0.922l-2.332-3.135H305.193z M305.193,437.289v2.771h0.911
			c0.283,0,0.524-0.008,0.724-0.027c0.201-0.019,0.38-0.053,0.539-0.102c0.32-0.098,0.566-0.255,0.74-0.47
			c0.174-0.216,0.262-0.496,0.262-0.843c-0.004-0.325-0.088-0.586-0.25-0.784s-0.387-0.341-0.674-0.427
			c-0.135-0.043-0.297-0.072-0.486-0.092c-0.188-0.019-0.428-0.027-0.719-0.027H305.193z"/>
		<path fill="#263778" d="M310.946,444.029l3.084-7.573h0.798l3.085,7.573h-1.002l-0.905-2.281h-3.164l-0.905,2.281H310.946z
			 M314.421,437.634c-0.338,0.942-0.659,1.798-0.968,2.569l-0.283,0.713h2.511l-0.288-0.712c-0.311-0.785-0.627-1.642-0.948-2.57
			H314.421z"/>
		<path fill="#263778" d="M323.54,440.678c0.465,0.668,0.923,1.355,1.375,2.061h0.035c-0.05-0.735-0.074-1.486-0.074-2.252v-4.03
			h0.929v7.573h-0.923l-2.972-4.223c-0.513-0.735-0.971-1.422-1.375-2.061h-0.033c0.049,0.691,0.072,1.497,0.072,2.417v3.866h-0.922
			v-7.573h0.917L323.54,440.678z"/>
		<path fill="#263778" d="M329.039,438.461c0,0.222,0.045,0.405,0.136,0.551c0.089,0.145,0.212,0.266,0.364,0.359
			s0.328,0.172,0.529,0.232s0.412,0.117,0.63,0.17c0.294,0.07,0.581,0.15,0.866,0.238c0.284,0.086,0.537,0.205,0.758,0.358
			c0.223,0.153,0.402,0.352,0.54,0.597c0.138,0.246,0.206,0.561,0.206,0.945c0,0.393-0.074,0.731-0.224,1.016
			c-0.147,0.285-0.354,0.52-0.616,0.702s-0.574,0.319-0.932,0.407c-0.358,0.089-0.751,0.133-1.178,0.133
			c-0.195,0-0.396-0.012-0.602-0.036c-0.206-0.024-0.402-0.058-0.589-0.099c-0.188-0.042-0.355-0.09-0.507-0.143
			c-0.15-0.053-0.27-0.105-0.356-0.158v-0.843c0.136,0.067,0.288,0.13,0.458,0.187s0.346,0.105,0.526,0.145s0.364,0.07,0.55,0.094
			c0.185,0.021,0.358,0.033,0.52,0.033c0.264,0,0.516-0.022,0.756-0.068c0.239-0.045,0.449-0.12,0.631-0.226s0.325-0.25,0.43-0.433
			c0.107-0.184,0.159-0.412,0.159-0.688c0-0.227-0.046-0.414-0.139-0.561c-0.093-0.147-0.216-0.27-0.37-0.365
			c-0.155-0.096-0.334-0.175-0.535-0.234c-0.201-0.061-0.414-0.117-0.637-0.17c-0.295-0.068-0.582-0.145-0.863-0.23
			c-0.281-0.084-0.532-0.201-0.753-0.354c-0.22-0.15-0.397-0.345-0.532-0.582c-0.133-0.238-0.2-0.542-0.2-0.912
			c0-0.385,0.07-0.715,0.212-0.993c0.14-0.276,0.33-0.506,0.57-0.687c0.241-0.182,0.518-0.315,0.831-0.402
			c0.313-0.087,0.646-0.131,1.001-0.131c0.404,0,0.781,0.039,1.129,0.116c0.35,0.077,0.67,0.179,0.96,0.304v0.854
			c-0.313-0.131-0.638-0.238-0.972-0.322c-0.334-0.083-0.69-0.126-1.071-0.13c-0.287,0-0.536,0.031-0.747,0.093
			c-0.211,0.063-0.387,0.152-0.527,0.267c-0.139,0.114-0.242,0.255-0.311,0.419S329.039,438.26,329.039,438.461z"/>
		<path fill="#263778" d="M336.2,444.029h-0.923v-7.573h4.516v0.833H336.2v2.444h3.187v0.831H336.2V444.029z"/>
		<path fill="#263778" d="M348.472,440.248c0,0.574-0.082,1.1-0.247,1.579c-0.164,0.479-0.4,0.893-0.708,1.239
			c-0.306,0.348-0.676,0.618-1.108,0.813c-0.432,0.194-0.916,0.291-1.451,0.291c-0.554,0-1.05-0.097-1.487-0.291
			c-0.438-0.194-0.81-0.465-1.112-0.813c-0.303-0.347-0.535-0.76-0.696-1.239s-0.241-1.005-0.241-1.579
			c0-0.577,0.084-1.106,0.25-1.588c0.166-0.48,0.402-0.895,0.707-1.242c0.305-0.347,0.676-0.617,1.109-0.812s0.92-0.292,1.46-0.292
			c0.55,0,1.042,0.098,1.479,0.292s0.806,0.465,1.108,0.812c0.305,0.348,0.535,0.762,0.697,1.242
			C348.391,439.142,348.472,439.671,348.472,440.248z M347.555,440.248c0-0.51-0.066-0.958-0.199-1.347
			c-0.135-0.389-0.318-0.713-0.554-0.974c-0.233-0.26-0.511-0.457-0.829-0.591s-0.66-0.201-1.026-0.201s-0.709,0.067-1.028,0.201
			c-0.317,0.134-0.594,0.331-0.828,0.591c-0.235,0.261-0.42,0.585-0.554,0.974c-0.133,0.389-0.199,0.837-0.199,1.347
			s0.067,0.958,0.202,1.345c0.137,0.386,0.32,0.71,0.557,0.971c0.232,0.26,0.51,0.456,0.828,0.589
			c0.319,0.131,0.664,0.197,1.033,0.197c0.366,0,0.707-0.066,1.021-0.197c0.314-0.133,0.59-0.329,0.823-0.589
			c0.235-0.261,0.419-0.585,0.554-0.971C347.488,441.206,347.555,440.758,347.555,440.248z"/>
		<path fill="#263778" d="M351.672,440.895v3.135h-0.922v-7.573h1.961c0.332,0,0.613,0.013,0.846,0.037
			c0.23,0.024,0.443,0.063,0.637,0.116c0.526,0.143,0.93,0.387,1.209,0.732c0.278,0.346,0.418,0.776,0.418,1.293
			c0,0.307-0.049,0.58-0.147,0.821c-0.097,0.241-0.235,0.451-0.413,0.628c-0.177,0.178-0.389,0.322-0.637,0.437
			c-0.247,0.112-0.521,0.196-0.822,0.249v0.022l2.24,3.237h-0.922l-2.332-3.135H351.672z M351.672,437.289v2.771h0.912
			c0.282,0,0.523-0.008,0.724-0.027c0.2-0.019,0.38-0.053,0.538-0.102c0.32-0.098,0.566-0.255,0.74-0.47
			c0.174-0.216,0.262-0.496,0.262-0.843c-0.004-0.325-0.088-0.586-0.25-0.784s-0.387-0.341-0.674-0.427
			c-0.135-0.043-0.297-0.072-0.486-0.092c-0.188-0.019-0.428-0.027-0.719-0.027H351.672z"/>
		<path fill="#263778" d="M362.201,444.029h-0.425l-1.907-4.522c-0.264-0.622-0.529-1.3-0.793-2.032h-0.045
			c0.053,1.053,0.079,2.018,0.079,2.893v3.662h-0.923v-7.573h1.33l1.783,4.284c0.204,0.49,0.429,1.082,0.674,1.771h0.028
			c0.271-0.766,0.495-1.355,0.673-1.771l1.783-4.284h1.33v7.573h-0.923v-3.662c0-0.856,0.026-1.82,0.079-2.893H364.9
			c-0.279,0.773-0.543,1.451-0.793,2.032L362.201,444.029z"/>
	</g>
</g>
</svg>
